# xmcd CD database file
#
# Track frame offsets:
#	150
#	18126
#	39041
#	59394
#	75809
#	92298
#	111812
#	127676
#	143252
#	166304
#
# Disc length: 2379 seconds
#
# Revision: 2
# Processed by: cddbd v1.5.2PL0 Copyright (c) Steve Scherf et al.
# Submitted via: CDex 1.51
#
DISCID=5809490a
DTITLE=Cedell Davis - The Best Of Cedell Davis
DYEAR=1995
DGENRE=Blues
TTITLE0=My dog won't stay home
TTITLE1=Rock
TTITLE2=Broke and Hungry
TTITLE3=Keep your mouth closed baby
TTITLE4=Laura Mae
TTITLE5=Get to steppin' baby
TTITLE6=Baby don't do it
TTITLE7=CeDell's boogie
TTITLE8=fattin frogs for Snakes
TTITLE9=I Gotta girl she lives up on the hill
EXTD=YEAR: 1995
EXTT0=
EXTT1=
EXTT2=
EXTT3=
EXTT4=
EXTT5=
EXTT6=
EXTT7=
EXTT8=
EXTT9=
PLAYORDER=
